<svg width="152" height="121" viewBox="0 0 152 121" fill="none" xmlns="http://www.w3.org/2000/svg">
<path fill-rule="evenodd" clip-rule="evenodd" d="M121.004 45.0021C121.004 69.8561 100.856 90.0042 76.0021 90.0042C51.1482 90.0042 31 69.8561 31 45.0021C31 20.1481 51.1482 0 76.0021 0C100.856 0 121.004 20.1481 121.004 45.0021ZM76.0021 87.0042C99.1992 87.0042 118.004 68.1992 118.004 45.0021C118.004 21.805 99.1992 3 76.0021 3C52.805 3 34 21.805 34 45.0021C34 68.1992 52.805 87.0042 76.0021 87.0042ZM102.032 47.1984H106.242V33.0385C104.843 31.5466 103.438 29.8784 102.032 28.0202V47.1984ZM108.242 47.1984H110.454V48.0188H110.455V49.3743H110.454V49.6594H92.3806C90.7721 51.1096 89.9678 53.1985 89.9678 55.9263C89.9678 57.081 90.2733 57.9596 90.8844 58.5621C91.4728 59.1395 92.1404 59.4282 92.8872 59.4282C93.3398 59.4282 93.7132 59.3779 94.0074 59.2775C94.279 59.152 94.5505 58.9888 94.8221 58.788C95.1163 58.5872 95.3879 58.4366 95.6368 58.3362C95.8857 58.2358 96.2252 58.1855 96.6552 58.1855C97.1078 58.1855 97.5378 58.3362 97.9451 58.6374C98.3525 58.9386 98.6919 59.3528 98.9635 59.88C98.3751 59.88 97.8093 60.2817 97.2662 61.085C96.7004 61.8632 95.9989 63.0681 95.1616 64.6998C94.46 66.0805 93.8603 67.185 93.3624 68.0134C92.8645 68.8167 92.3101 69.5196 91.6991 70.1221C91.0654 70.6995 90.3978 70.9882 89.6963 70.9882C89.04 70.9882 88.429 70.7999 87.8632 70.4234C87.2748 70.0217 86.8222 69.4318 86.5054 68.6536C87.2295 68.6536 87.8632 68.5155 88.4063 68.2394C88.9495 67.9632 89.6284 67.2478 90.4431 66.0931C91.2352 64.9132 92.2083 63.0681 93.3624 60.5578C92.7514 60.7837 92.1064 60.8967 91.4275 60.8967C90.5676 60.8967 89.8094 60.7335 89.1531 60.4072C87.9311 61.0599 86.494 61.3862 84.842 61.3862C84.0499 61.3862 83.2805 61.2983 82.5337 61.1226V70.6116H79.0712V49.6594H74.1158V70.6116H70.5641V61.1226C69.798 61.2983 69.0088 61.3862 68.1963 61.3862C66.5017 61.3862 65.0276 61.0599 63.774 60.4072C63.1008 60.7335 62.3232 60.8967 61.4411 60.8967C60.7446 60.8967 60.0831 60.7837 59.4563 60.5578C60.6402 63.0681 61.6384 64.9132 62.4509 66.0931C63.2866 67.2478 63.983 67.9632 64.5401 68.2394C65.0972 68.5155 65.7472 68.6536 66.4901 68.6536C66.1651 69.4318 65.7008 70.0217 65.0972 70.4234C64.5169 70.7999 63.8901 70.9882 63.2169 70.9882C62.4973 70.9882 61.8125 70.6995 61.1625 70.1221C60.5357 69.5196 59.967 68.8167 59.4563 68.0134C58.9456 67.185 58.3304 66.0805 57.6108 64.6998C56.7519 63.0681 56.0322 61.8632 55.4519 61.085C54.8948 60.2817 54.3144 59.88 53.7109 59.88C53.9894 59.3528 54.3376 58.9386 54.7555 58.6374C55.1733 58.3362 55.6144 58.1855 56.0787 58.1855C56.5197 58.1855 56.8679 58.2358 57.1233 58.3362C57.3786 58.4366 57.6572 58.5872 57.959 58.788C58.2376 58.9888 58.5161 59.152 58.7947 59.2775C59.0965 59.3779 59.4795 59.4282 59.9438 59.4282C60.7098 59.4282 61.3946 59.1395 61.9982 58.5621C62.625 57.9596 62.9384 57.081 62.9384 55.9263C62.9384 53.1985 62.1134 51.1096 60.4634 49.6594H41.9065V49.3743V48.0188V47.1984H43.2016V35.8546C42.9985 36.0543 42.7956 36.2498 42.5928 36.4411L41.2202 34.9864C43.8876 32.4697 46.6229 29.1567 49.3929 24.8798L49.3923 24.8789C49.377 24.8546 49.3638 24.8337 49.3528 24.8162C49.3457 24.8048 49.3396 24.7949 49.3343 24.7865L49.3188 24.7615L49.3144 24.7544L49.3131 24.7523C49.3129 24.7518 49.3126 24.7515 49.5035 24.6344V22.7657H51.5035V24.4526C51.5389 24.5054 51.5763 24.5606 51.6156 24.6183L51.8397 24.7581L51.7785 24.8562C51.8767 24.9984 51.9841 25.1521 52.1004 25.3161C52.8165 26.3262 53.8706 27.7278 55.2167 29.2855C57.9177 32.4109 61.7542 36.1174 66.3561 38.5744C69.0005 39.9862 71.8811 40.9781 74.9418 41.2193V39.8154H76.5935V41.2749C78.3299 41.2545 80.1188 40.9839 81.9506 40.4062C87.4593 38.669 93.5155 34.1051 99.7585 24.8521L99.7172 24.7915L99.8686 24.6885C99.923 24.6075 99.9774 24.5261 100.032 24.4443V22.7657H102.032V24.6234L102.077 24.6881L102.209 24.7734L102.174 24.8261C105.201 29.1122 108.191 32.4335 111.109 34.9574L109.8 36.4701C109.282 36.0217 108.763 35.5503 108.242 35.0553V47.1984ZM82.5337 49.6594V59.5035C83.2352 59.7294 84.0047 59.8424 84.842 59.8424C85.9056 59.8424 86.8788 59.6666 87.7614 59.3152C87.3314 58.8131 87.0145 58.2358 86.8109 57.5831C86.6072 56.9304 86.5054 56.2777 86.5054 55.625C86.5054 54.3448 86.8109 53.1524 87.4219 52.0478C87.9482 51.0747 88.6677 50.2786 89.5803 49.6594H82.5337ZM70.5641 49.6594H63.3358C64.272 50.2786 65.01 51.0747 65.5499 52.0478C66.1767 53.1524 66.4901 54.3448 66.4901 55.625C66.4901 56.2777 66.3856 56.9304 66.1767 57.5831C65.9678 58.2358 65.6428 58.8131 65.2017 59.3152C66.107 59.6666 67.1052 59.8424 68.1963 59.8424C69.0552 59.8424 69.8445 59.7294 70.5641 59.5035V49.6594ZM45.2016 47.1984H49.5035V28.2944C48.0661 30.3427 46.6311 32.1564 45.2016 33.7542V47.1984ZM51.5035 47.1984H56.5983V33.6875C55.5239 32.6294 54.5555 31.5791 53.7035 30.5932C52.8551 29.6115 52.1183 28.6893 51.5035 27.8807V47.1984ZM58.5983 47.1984H61.5535V37.9113C60.5116 37.1564 59.5249 36.3598 58.5983 35.5477V47.1984ZM63.5535 47.1984L66.5088 47.1984V40.8939C66.139 40.7162 65.7741 40.5308 65.4142 40.3387C64.7789 39.9995 64.1584 39.6387 63.5535 39.2606V47.1984ZM68.5088 47.1984L70.9797 47.1984V42.5591C70.1374 42.3363 69.3132 42.0669 68.5088 41.7582V47.1984ZM72.9797 47.1984L74.9418 47.1984V43.2252C74.2789 43.178 73.6246 43.0989 72.9797 42.9909V47.1984ZM76.5935 47.1984L78.1346 47.1984V43.2001C77.6165 43.2455 77.1027 43.2703 76.5935 43.2756V47.1984ZM80.1346 47.1984H83.1058V42.1309C82.921 42.1946 82.7365 42.2555 82.5522 42.3136C81.7378 42.5705 80.9317 42.7722 80.1346 42.9232V47.1984ZM85.1058 47.1984H89.5631V38.7604C88.0652 39.8167 86.5781 40.6678 85.1058 41.3341V47.1984ZM91.5631 47.1984H94.5688V34.4734C93.5637 35.4908 92.5614 36.4081 91.5631 37.2313V47.1984ZM96.5688 47.1984L100.032 47.1984V27.953C98.8758 29.5502 97.7209 31.0027 96.5688 32.3193V47.1984ZM2.22114 119.88C2.95447 120.08 3.74114 120.18 4.58114 120.18C6.20781 120.18 7.44781 119.813 8.30114 119.08C9.16781 118.347 9.60114 117.38 9.60114 116.18C9.60114 115.367 9.41447 114.68 9.04114 114.12C8.66781 113.56 8.21447 113.113 7.68114 112.78C7.14781 112.447 6.45447 112.08 5.60114 111.68C4.96114 111.387 4.45447 111.133 4.08114 110.92C3.72114 110.707 3.41447 110.453 3.16114 110.16C2.92114 109.853 2.80114 109.5 2.80114 109.1C2.80114 108.607 2.96781 108.233 3.30114 107.98C3.63447 107.713 4.08114 107.58 4.64114 107.58C5.25447 107.58 5.74114 107.78 6.10114 108.18C6.47447 108.58 6.75447 109.307 6.94114 110.36C7.26114 110.36 7.58114 110.333 7.90114 110.28C8.23447 110.227 8.50781 110.147 8.72114 110.04C8.62781 109.4 8.58114 108.447 8.58114 107.18C8.20781 106.94 7.66114 106.733 6.94114 106.56C6.23447 106.387 5.52114 106.3 4.80114 106.3C3.45447 106.3 2.36781 106.633 1.54114 107.3C0.714473 107.953 0.30114 108.92 0.30114 110.2C0.30114 111.053 0.487806 111.767 0.86114 112.34C1.23447 112.913 1.68114 113.373 2.20114 113.72C2.73447 114.053 3.42114 114.413 4.26114 114.8C4.86114 115.08 5.32781 115.32 5.66114 115.52C6.00781 115.707 6.28781 115.94 6.50114 116.22C6.72781 116.487 6.84114 116.807 6.84114 117.18C6.84114 117.66 6.66114 118.06 6.30114 118.38C5.94114 118.687 5.38781 118.84 4.64114 118.84C3.76114 118.84 3.13447 118.6 2.76114 118.12C2.40114 117.64 2.18781 116.813 2.12114 115.64C1.36114 115.64 0.747806 115.707 0.28114 115.84C0.28114 117.107 0.20114 118.153 0.0411396 118.98C0.774473 119.38 1.50114 119.68 2.22114 119.88ZM24.353 120.04C24.353 119.453 24.313 119.04 24.233 118.8C24.0063 118.773 23.8063 118.68 23.633 118.52C23.473 118.36 23.2597 118.02 22.993 117.5L18.993 109.9C18.7663 109.9 18.5597 109.907 18.373 109.92C18.1863 109.933 17.9997 109.96 17.813 110L14.233 117.32C13.953 117.88 13.7263 118.253 13.553 118.44C13.3797 118.627 13.153 118.74 12.873 118.78C12.7797 119.167 12.733 119.587 12.733 120.04C12.9597 120.013 13.4797 120 14.293 120C15.0663 120 15.7063 120.013 16.213 120.04C16.213 119.533 16.173 119.12 16.093 118.8C15.5463 118.72 15.273 118.46 15.273 118.02C15.273 117.833 15.3197 117.647 15.413 117.46L15.433 117.4C16.473 117.28 17.8797 117.22 19.653 117.22L19.873 117.68C19.9663 117.867 20.013 118.033 20.013 118.18C20.013 118.34 19.9463 118.467 19.813 118.56C19.6797 118.653 19.473 118.733 19.193 118.8C19.113 119.12 19.073 119.533 19.073 120.04C19.4597 120.013 20.3797 120 21.833 120C23.113 120 23.953 120.013 24.353 120.04ZM18.313 114.38L19.173 116.2H15.993L16.833 114.34L17.033 113.92C17.2863 113.36 17.4597 112.933 17.553 112.64C17.6863 113.04 17.8797 113.487 18.133 113.98L18.313 114.38ZM39.3385 118.18C39.2718 117.94 39.2385 117.58 39.2385 117.1V112.86C39.2385 112.393 39.2652 112.053 39.3185 111.84C39.3852 111.613 39.4985 111.46 39.6585 111.38C39.8185 111.287 40.0718 111.22 40.4185 111.18C40.5118 110.873 40.5585 110.467 40.5585 109.96C39.5985 109.987 38.6852 110 37.8185 110C36.7918 110 35.9052 109.987 35.1585 109.96C35.1585 110.453 35.1985 110.86 35.2785 111.18C35.5718 111.233 35.7851 111.313 35.9185 111.42C36.0652 111.513 36.1651 111.673 36.2185 111.9C36.2718 112.127 36.2985 112.473 36.2985 112.94V114.22H32.2985V112.94C32.2985 112.473 32.3251 112.127 32.3785 111.9C32.4318 111.66 32.5252 111.493 32.6585 111.4C32.8051 111.293 33.0185 111.22 33.2985 111.18C33.3918 110.913 33.4385 110.507 33.4385 109.96C32.5318 109.987 31.6785 110 30.8785 110C29.7585 110 28.8118 109.987 28.0385 109.96C28.0385 110.48 28.0851 110.887 28.1785 111.18C28.5252 111.233 28.7718 111.307 28.9185 111.4C29.0785 111.48 29.1852 111.627 29.2385 111.84C29.3051 112.053 29.3385 112.393 29.3385 112.86V117.1C29.3385 117.58 29.3051 117.94 29.2385 118.18C29.1852 118.407 29.0785 118.567 28.9185 118.66C28.7585 118.74 28.5118 118.793 28.1785 118.82C28.1385 118.953 28.1052 119.14 28.0785 119.38C28.0518 119.62 28.0385 119.84 28.0385 120.04C29.0252 120.013 30.0118 120 30.9985 120C31.8785 120 32.6918 120.013 33.4385 120.04C33.4385 119.48 33.3985 119.073 33.3185 118.82C33.0252 118.793 32.8051 118.74 32.6585 118.66C32.5252 118.567 32.4318 118.407 32.3785 118.18C32.3251 117.94 32.2985 117.58 32.2985 117.1V115.52C33.1518 115.427 34.4851 115.38 36.2985 115.38V117.1C36.2985 117.58 36.2718 117.94 36.2185 118.18C36.1651 118.407 36.0652 118.567 35.9185 118.66C35.7851 118.74 35.5785 118.793 35.2985 118.82C35.2585 118.953 35.2252 119.14 35.1985 119.38C35.1718 119.62 35.1585 119.84 35.1585 120.04C36.1185 120.013 37.0518 120 37.9585 120C38.9185 120 39.7851 120.013 40.5585 120.04C40.5585 119.467 40.5118 119.06 40.4185 118.82C40.0852 118.793 39.8385 118.74 39.6785 118.66C39.5185 118.567 39.4052 118.407 39.3385 118.18ZM54.839 109.96C54.4923 109.987 53.959 110 53.239 110C52.4256 110 51.8256 109.987 51.4389 109.96C51.4389 110.427 51.4923 110.84 51.5989 111.2C52.0656 111.213 52.299 111.38 52.299 111.7C52.299 111.86 52.2323 112.06 52.0989 112.3C51.5923 113.153 51.0789 114.1 50.559 115.14C49.9723 114.02 49.479 113.12 49.0789 112.44C48.9189 112.16 48.839 111.92 48.839 111.72C48.839 111.427 49.059 111.253 49.499 111.2C49.5656 110.827 49.5989 110.413 49.5989 109.96C49.159 109.987 48.2389 110 46.839 110C45.5723 110 44.699 109.987 44.219 109.96C44.219 110.52 44.2589 110.933 44.339 111.2C44.5789 111.227 44.7923 111.307 44.979 111.44C45.1656 111.56 45.3523 111.773 45.539 112.08L48.1189 116.42V116.92C48.1189 117.48 48.0789 117.88 47.999 118.12C47.9323 118.36 47.7856 118.527 47.559 118.62C47.3456 118.7 46.959 118.76 46.399 118.8C46.3056 119.04 46.2456 119.46 46.219 120.06L46.9189 120.04C47.9856 120.013 48.8656 120 49.559 120C51.1323 120 52.2323 120.013 52.859 120.04C52.859 119.76 52.8456 119.54 52.819 119.38C52.8056 119.207 52.7656 119.013 52.699 118.8C52.219 118.76 51.8656 118.693 51.639 118.6C51.4256 118.493 51.2789 118.327 51.199 118.1C51.1323 117.86 51.0989 117.487 51.0989 116.98V116.4L53.319 112.38C53.559 111.94 53.7789 111.647 53.979 111.5C54.179 111.34 54.419 111.24 54.699 111.2C54.7923 110.867 54.839 110.453 54.839 109.96ZM60.993 119.54C61.8863 119.967 62.9263 120.18 64.113 120.18C65.3397 120.18 66.4063 119.96 67.313 119.52C68.233 119.067 68.9397 118.44 69.433 117.64C69.9397 116.84 70.193 115.92 70.193 114.88C70.193 113.853 69.9464 112.967 69.453 112.22C68.9597 111.46 68.2597 110.88 67.353 110.48C66.4597 110.067 65.4197 109.86 64.233 109.86C63.0197 109.86 61.9597 110.067 61.053 110.48C60.1463 110.893 59.4397 111.487 58.933 112.26C58.4397 113.033 58.193 113.947 58.193 115C58.193 116.04 58.433 116.953 58.913 117.74C59.4063 118.513 60.0997 119.113 60.993 119.54ZM66.373 117.96C65.893 118.627 65.2197 118.96 64.353 118.96C63.4197 118.96 62.673 118.56 62.113 117.76C61.5663 116.96 61.293 115.927 61.293 114.66C61.293 113.513 61.5197 112.627 61.973 112C62.4397 111.36 63.0997 111.04 63.953 111.04C64.8863 111.04 65.6397 111.42 66.213 112.18C66.7997 112.927 67.093 113.933 67.093 115.2C67.093 116.36 66.853 117.28 66.373 117.96ZM76.9322 119.48C77.8522 119.92 78.9189 120.14 80.1322 120.14C81.0122 120.14 81.8456 120.033 82.6322 119.82C83.4189 119.607 84.0856 119.32 84.6322 118.96C84.5256 118.693 84.4522 118.473 84.4122 118.3C84.3722 118.127 84.3522 117.88 84.3522 117.56V117.16C84.3522 116.827 84.3922 116.607 84.4722 116.5C84.5656 116.38 84.7656 116.307 85.0722 116.28C85.1389 115.96 85.1722 115.553 85.1722 115.06C84.7589 115.087 83.9722 115.1 82.8122 115.1C81.6656 115.1 80.8856 115.087 80.4722 115.06C80.4722 115.527 80.5122 115.933 80.5922 116.28C80.9656 116.307 81.2389 116.353 81.4122 116.42C81.5989 116.473 81.7256 116.573 81.7922 116.72C81.8589 116.853 81.8922 117.053 81.8922 117.32V117.78C81.8922 118.14 81.8589 118.387 81.7922 118.52C81.7256 118.653 81.6122 118.74 81.4522 118.78C81.2256 118.833 80.8856 118.86 80.4322 118.86C79.4322 118.86 78.6522 118.473 78.0922 117.7C77.5456 116.913 77.2722 115.873 77.2722 114.58C77.2722 113.607 77.5189 112.787 78.0122 112.12C78.5056 111.453 79.2522 111.12 80.2522 111.12C81.7989 111.12 82.6122 111.8 82.6922 113.16C83.0656 113.16 83.3589 113.153 83.5722 113.14C83.7989 113.113 84.0056 113.047 84.1922 112.94C84.1922 111.993 84.2522 111.227 84.3722 110.64C83.9056 110.427 83.2922 110.247 82.5322 110.1C81.7856 109.953 81.0322 109.88 80.2722 109.88C79.1522 109.88 78.1189 110.067 77.1722 110.44C76.2389 110.813 75.4922 111.38 74.9322 112.14C74.3722 112.9 74.0922 113.833 74.0922 114.94C74.0922 115.953 74.3389 116.853 74.8322 117.64C75.3256 118.427 76.0256 119.04 76.9322 119.48ZM95.0497 115.64C95.2231 115.173 95.3097 114.62 95.3097 113.98H89.6697C89.5631 114.233 89.4764 114.527 89.4097 114.86C89.3564 115.193 89.3297 115.493 89.3297 115.76C90.7431 115.68 92.6497 115.64 95.0497 115.64ZM101.309 119.88C102.042 120.08 102.829 120.18 103.669 120.18C105.295 120.18 106.535 119.813 107.389 119.08C108.255 118.347 108.689 117.38 108.689 116.18C108.689 115.367 108.502 114.68 108.129 114.12C107.755 113.56 107.302 113.113 106.769 112.78C106.235 112.447 105.542 112.08 104.689 111.68C104.049 111.387 103.542 111.133 103.169 110.92C102.809 110.707 102.502 110.453 102.249 110.16C102.009 109.853 101.889 109.5 101.889 109.1C101.889 108.607 102.055 108.233 102.389 107.98C102.722 107.713 103.169 107.58 103.729 107.58C104.342 107.58 104.829 107.78 105.189 108.18C105.562 108.58 105.842 109.307 106.029 110.36C106.349 110.36 106.669 110.333 106.989 110.28C107.322 110.227 107.595 110.147 107.809 110.04C107.715 109.4 107.669 108.447 107.669 107.18C107.295 106.94 106.749 106.733 106.029 106.56C105.322 106.387 104.609 106.3 103.889 106.3C102.542 106.3 101.455 106.633 100.629 107.3C99.802 107.953 99.3886 108.92 99.3886 110.2C99.3886 111.053 99.5753 111.767 99.9486 112.34C100.322 112.913 100.769 113.373 101.289 113.72C101.822 114.053 102.509 114.413 103.349 114.8C103.949 115.08 104.415 115.32 104.749 115.52C105.095 115.707 105.375 115.94 105.589 116.22C105.815 116.487 105.929 116.807 105.929 117.18C105.929 117.66 105.749 118.06 105.389 118.38C105.029 118.687 104.475 118.84 103.729 118.84C102.849 118.84 102.222 118.6 101.849 118.12C101.489 117.64 101.275 116.813 101.209 115.64C100.449 115.64 99.8353 115.707 99.3686 115.84C99.3686 117.107 99.2886 118.153 99.1286 118.98C99.862 119.38 100.589 119.68 101.309 119.88ZM122.381 117.34C122.234 117.207 122.027 117.093 121.761 117C121.494 116.893 121.201 116.827 120.881 116.8C120.641 117.547 120.334 118.073 119.961 118.38C119.601 118.673 119.034 118.82 118.261 118.82H118.001C117.441 118.82 117.061 118.693 116.861 118.44C116.674 118.187 116.581 117.707 116.581 117V115.74H117.141C117.647 115.74 117.994 115.807 118.181 115.94C118.381 116.06 118.501 116.3 118.541 116.66C118.821 116.767 119.234 116.82 119.781 116.82C119.741 116.42 119.721 115.84 119.721 115.08C119.721 114.387 119.741 113.813 119.781 113.36C119.247 113.36 118.821 113.427 118.501 113.56C118.487 113.92 118.387 114.173 118.201 114.32C118.014 114.467 117.661 114.54 117.141 114.54H116.581V111.2H117.721C118.601 111.2 119.221 111.34 119.581 111.62C119.954 111.887 120.187 112.307 120.281 112.88C120.827 112.88 121.307 112.787 121.721 112.6C121.534 112.013 121.407 111.133 121.341 109.96C120.767 109.987 119.181 110 116.581 110C115.021 110 113.601 109.987 112.321 109.96C112.321 110.52 112.354 110.933 112.421 111.2C112.767 111.24 113.021 111.307 113.181 111.4C113.341 111.48 113.454 111.633 113.521 111.86C113.587 112.073 113.621 112.413 113.621 112.88V117.1C113.621 117.58 113.587 117.933 113.521 118.16C113.454 118.387 113.341 118.547 113.181 118.64C113.021 118.72 112.774 118.773 112.441 118.8C112.361 119.093 112.321 119.507 112.321 120.04L117.481 120L121.841 120.02C121.934 118.927 122.114 118.033 122.381 117.34ZM136.707 111.42C136.654 110.873 136.634 110.387 136.647 109.96C135.767 109.987 134.054 110 131.507 110C128.92 110 127.18 109.987 126.287 109.96C126.287 110.387 126.247 110.88 126.167 111.44C126.1 112 126.014 112.48 125.907 112.88C126.227 113.04 126.734 113.12 127.427 113.12C127.6 112.427 127.834 111.94 128.127 111.66C128.42 111.38 128.887 111.24 129.527 111.24H129.987V117.08C129.987 117.56 129.934 117.92 129.827 118.16C129.734 118.387 129.567 118.547 129.327 118.64C129.087 118.733 128.727 118.793 128.247 118.82C128.207 118.993 128.167 119.2 128.127 119.44C128.087 119.667 128.067 119.867 128.067 120.04C129.054 120.013 130.234 120 131.607 120C132.767 120 133.8 120.013 134.707 120.04C134.707 119.453 134.654 119.047 134.547 118.82C134.08 118.793 133.734 118.74 133.507 118.66C133.294 118.567 133.147 118.407 133.067 118.18C132.987 117.94 132.947 117.573 132.947 117.08V111.24H133.547C134.134 111.24 134.567 111.387 134.847 111.68C135.127 111.96 135.32 112.44 135.427 113.12C136.054 113.093 136.567 113.007 136.967 112.86C136.86 112.433 136.774 111.953 136.707 111.42ZM143.698 119.78C144.365 120.02 145.278 120.14 146.438 120.14C147.812 120.14 148.831 119.88 149.498 119.36C149.898 119.04 150.172 118.607 150.318 118.06C150.478 117.513 150.558 116.787 150.558 115.88V113.04C150.558 112.36 150.632 111.9 150.778 111.66C150.925 111.407 151.218 111.253 151.658 111.2C151.738 110.947 151.778 110.533 151.778 109.96C151.165 109.987 150.558 110 149.958 110C149.305 110 148.672 109.987 148.058 109.96C148.058 110.44 148.092 110.853 148.158 111.2C148.492 111.253 148.738 111.347 148.898 111.48C149.072 111.6 149.191 111.793 149.258 112.06C149.325 112.327 149.358 112.713 149.358 113.22V115.68C149.358 116.4 149.312 116.953 149.218 117.34C149.125 117.727 148.978 118.02 148.778 118.22C148.578 118.433 148.325 118.593 148.018 118.7C147.712 118.807 147.411 118.86 147.118 118.86C146.278 118.86 145.672 118.653 145.298 118.24C144.938 117.827 144.758 117.14 144.758 116.18V112.98C144.758 112.5 144.785 112.147 144.838 111.92C144.905 111.68 145.018 111.513 145.178 111.42C145.338 111.327 145.592 111.253 145.938 111.2C146.005 110.893 146.038 110.48 146.038 109.96C145.292 109.987 144.238 110 142.878 110C141.985 110 141.218 109.987 140.578 109.96C140.578 110.467 140.618 110.88 140.698 111.2C141.032 111.253 141.271 111.327 141.418 111.42C141.578 111.513 141.685 111.673 141.738 111.9C141.805 112.127 141.838 112.487 141.838 112.98V116.44C141.838 117.347 141.978 118.067 142.258 118.6C142.551 119.133 143.032 119.527 143.698 119.78Z" fill="#F5FBEF"/>
</svg>
